<svg width="130" height="146" viewBox="0 0 130 146" fill="none" xmlns="http://www.w3.org/2000/svg">
<path d="M61.7388 0.87868C60.5672 -0.292893 58.6677 -0.292893 57.4961 0.87868L38.4042 19.9706C37.2327 21.1421 37.2327 23.0416 38.4042 24.2132C39.5758 25.3848 41.4753 25.3848 42.6469 24.2132L59.6174 7.24264L76.588 24.2132C77.7596 25.3848 79.6591 25.3848 80.8306 24.2132C82.0022 23.0416 82.0022 21.1421 80.8306 19.9706L61.7388 0.87868ZM62.6174 146L62.6174 3H56.6174L56.6174 146H62.6174Z" fill="#244D61"/>
<path d="M3.21688 33.0601C1.5404 33.2834 0.531878 34.7316 0.96428 36.2945L8.01067 61.7647C8.44307 63.3276 10.1527 64.4136 11.8291 64.1903C13.5056 63.9669 14.5141 62.5188 14.0817 60.9558L7.81828 38.3157L32.1025 35.0802C33.779 34.8568 34.7875 33.4087 34.3551 31.8458C33.9227 30.2828 32.2132 29.1968 30.5367 29.4202L3.21688 33.0601ZM55.3118 144.476C60.1265 116.787 59.8006 96.5454 51.9903 79.3643C44.1492 62.1152 29.0107 48.4787 5.59264 33.603L2.40698 38.1772C25.4195 52.7953 39.1799 65.52 46.2342 81.0381C53.3193 96.6242 53.8851 115.556 49.1159 142.984L55.3118 144.476Z" fill="#244D61"/>
<path d="M129.088 36.26C129.512 34.7238 128.474 33.3128 126.769 33.1084L98.9785 29.7776C97.2732 29.5732 95.5465 30.6529 95.1218 32.1891C94.6971 33.7253 95.7353 35.1364 97.4406 35.3408L122.143 38.3015L115.992 60.554C115.567 62.0902 116.605 63.5013 118.31 63.7057C120.016 63.9101 121.743 62.8304 122.167 61.2942L129.088 36.26ZM69.9101 141.577C64.2524 118.189 64.8194 101.288 73.3676 85.9352C81.9794 70.4682 98.9738 56.0421 127.64 38.1185L124.36 33.6614C95.506 51.7029 77.1814 66.9267 67.7123 83.9333C58.1795 101.054 57.9036 119.45 63.6781 143.321L69.9101 141.577Z" fill="#244D61"/>
</svg>
