<svg width="67" height="67" viewBox="0 0 67 67" fill="none" xmlns="http://www.w3.org/2000/svg">
<path d="M54.4375 33.5C54.4375 32.8579 54.4096 32.2437 54.3538 31.6017L59.5463 27.6654C60.6629 26.8279 60.97 25.2646 60.2721 24.0362L55.0517 15.0192C54.7169 14.4278 54.1755 13.9811 53.5314 13.7646C52.8873 13.5482 52.186 13.5774 51.5621 13.8467L45.56 16.3871C44.5271 15.6612 43.4383 15.0192 42.2938 14.4887L41.4842 8.04C41.3167 6.64416 40.1163 5.58333 38.7204 5.58333H28.3075C26.8838 5.58333 25.6833 6.64416 25.5158 8.04L24.7063 14.4887C23.5617 15.0192 22.4729 15.6612 21.44 16.3871L15.4379 13.8467C14.1538 13.2883 12.6463 13.7908 11.9483 15.0192L6.72793 24.0642C6.03001 25.2925 6.33709 26.8279 7.45376 27.6933L12.6463 31.6296C12.5305 32.8832 12.5305 34.1447 12.6463 35.3983L7.45376 39.3346C6.33709 40.1721 6.03001 41.7354 6.72793 42.9637L11.9483 51.9808C12.6463 53.2092 14.1538 53.7117 15.4379 53.1533L21.44 50.6129C22.4729 51.3387 23.5617 51.9808 24.7063 52.5112L25.5158 58.96C25.6833 60.3558 26.8838 61.4167 28.2796 61.4167H38.6925C40.0883 61.4167 41.2888 60.3558 41.4563 58.96L42.2658 52.5112C43.4104 51.9808 44.4992 51.3387 45.5321 50.6129L51.5342 53.1533C52.8183 53.7117 54.3258 53.2092 55.0238 51.9808L60.2442 42.9637C60.9421 41.7354 60.635 40.2 59.5183 39.3346L54.3258 35.3983C54.4096 34.7562 54.4375 34.1421 54.4375 33.5Z" fill="#244D61"/>
<path d="M22.9807 24.9863C21.8945 25.1871 21.1767 26.2303 21.3774 27.3165L24.6485 45.0168C24.8493 46.1029 25.8925 46.8207 26.9787 46.62C28.0649 46.4193 28.7827 45.376 28.5819 44.2898L25.6743 28.5563L41.4079 25.6486C42.494 25.4479 43.2118 24.4046 43.0111 23.3185C42.8104 22.2323 41.7671 21.5145 40.681 21.7152L22.9807 24.9863ZM45.4797 39.7556L24.4778 25.3054L22.2105 28.6007L43.2124 43.0509L45.4797 39.7556Z" fill="white"/>
</svg>
