<svg width="106" height="106" viewBox="0 0 106 106" fill="none" xmlns="http://www.w3.org/2000/svg">
<path d="M86.125 53C86.125 51.9842 86.0808 51.0125 85.9925 49.9967L94.2075 43.7692C95.9742 42.4442 96.46 39.9708 95.3558 38.0275L87.0967 23.7617C86.5671 22.8262 85.7105 22.1193 84.6915 21.7769C83.6725 21.4345 82.5628 21.4807 81.5758 21.9067L72.08 25.9258C70.4458 24.7775 68.7233 23.7617 66.9125 22.9225L65.6317 12.72C65.3667 10.5117 63.4675 8.83334 61.2592 8.83334H44.785C42.5325 8.83334 40.6333 10.5117 40.3683 12.72L39.0875 22.9225C37.2767 23.7617 35.5542 24.7775 33.92 25.9258L24.4242 21.9067C22.3925 21.0233 20.0075 21.8183 18.9033 23.7617L10.6442 38.0717C9.53999 40.015 10.0258 42.4442 11.7925 43.8133L20.0075 50.0408C19.8244 52.0241 19.8244 54.0201 20.0075 56.0033L11.7925 62.2308C10.0258 63.5558 9.53999 66.0292 10.6442 67.9725L18.9033 82.2383C20.0075 84.1817 22.3925 84.9767 24.4242 84.0933L33.92 80.0742C35.5542 81.2225 37.2767 82.2383 39.0875 83.0775L40.3683 93.28C40.6333 95.4883 42.5325 97.1667 44.7408 97.1667H61.215C63.4233 97.1667 65.3225 95.4883 65.5875 93.28L66.8683 83.0775C68.6792 82.2383 70.4017 81.2225 72.0358 80.0742L81.5316 84.0933C83.5633 84.9767 85.9483 84.1817 87.0525 82.2383L95.3117 67.9725C96.4158 66.0292 95.93 63.6 94.1633 62.2308L85.9483 56.0033C86.0808 54.9875 86.125 54.0158 86.125 53Z" fill="#244D61"/>
<path d="M71.81 71.8834C72.912 71.8087 73.7448 70.8547 73.6701 69.7526L72.4518 51.7939C72.3771 50.6919 71.4231 49.8591 70.3211 49.9339C69.219 50.0086 68.3862 50.9626 68.461 52.0646L69.5439 68.0279L53.5806 69.1108C52.4785 69.1856 51.6458 70.1396 51.7205 71.2416C51.7953 72.3436 52.7492 73.1764 53.8513 73.1017L71.81 71.8834ZM32.6847 38.5067L70.3594 71.3947L72.9899 68.3813L35.3153 35.4933L32.6847 38.5067Z" fill="white"/>
</svg>
