<svg width="60" height="61" viewBox="0 0 60 61" fill="none" xmlns="http://www.w3.org/2000/svg">
<path d="M23.125 55.9166L22.125 47.7833C21.5833 47.5715 21.0725 47.3173 20.5925 47.0208C20.1125 46.7243 19.6442 46.4066 19.1875 46.0677L11.75 49.2448L4.875 37.1719L11.3125 32.2156C11.2708 31.9191 11.25 31.6327 11.25 31.3565V29.6434C11.25 29.3672 11.2708 29.0809 11.3125 28.7844L4.875 23.8281L11.75 11.7552L19.1875 14.9323C19.6458 14.5934 20.125 14.2757 20.625 13.9791C21.125 13.6826 21.625 13.4285 22.125 13.2166L23.125 5.08331H36.875L37.875 13.2166C38.4167 13.4285 38.9275 13.6826 39.4075 13.9791C39.8875 14.2757 40.3558 14.5934 40.8125 14.9323L48.25 11.7552L55.125 23.8281L48.6875 28.7844C48.7292 29.0809 48.75 29.3672 48.75 29.6434V31.3565C48.75 31.6327 48.7083 31.9191 48.625 32.2156L55.0625 37.1719L48.1875 49.2448L40.8125 46.0677C40.3542 46.4066 39.875 46.7243 39.375 47.0208C38.875 47.3173 38.375 47.5715 37.875 47.7833L36.875 55.9166H23.125ZM30.125 39.3958C32.5417 39.3958 34.6042 38.5274 36.3125 36.7906C38.0208 35.0538 38.875 32.9569 38.875 30.5C38.875 28.043 38.0208 25.9462 36.3125 24.2094C34.6042 22.4725 32.5417 21.6041 30.125 21.6041C27.6667 21.6041 25.5933 22.4725 23.905 24.2094C22.2167 25.9462 21.3733 28.043 21.375 30.5C21.375 32.9569 22.2183 35.0538 23.905 36.7906C25.5917 38.5274 27.665 39.3958 30.125 39.3958ZM30.125 34.3125C29.0833 34.3125 28.1975 33.9414 27.4675 33.1992C26.7375 32.4571 26.3733 31.5573 26.375 30.5C26.375 29.441 26.74 28.5404 27.47 27.7982C28.2 27.056 29.085 26.6858 30.125 26.6875C31.1667 26.6875 32.0525 27.0586 32.7825 27.8007C33.5125 28.5429 33.8767 29.4426 33.875 30.5C33.875 31.559 33.51 32.4596 32.78 33.2018C32.05 33.9439 31.165 34.3142 30.125 34.3125ZM27.5 50.8333H32.4375L33.3125 44.0979C34.6042 43.759 35.8025 43.2608 36.9075 42.6034C38.0125 41.9459 39.0225 41.1521 39.9375 40.2219L46.125 42.8271L48.5625 38.5062L43.1875 34.376C43.3958 33.783 43.5417 33.1586 43.625 32.5028C43.7083 31.8471 43.75 31.1795 43.75 30.5C43.75 29.8222 43.7083 29.1554 43.625 28.4997C43.5417 27.8439 43.3958 27.2187 43.1875 26.6239L48.5625 22.4937L46.125 18.1729L39.9375 20.8416C39.0208 19.8673 38.0108 19.0523 36.9075 18.3966C35.8042 17.7408 34.6058 17.2426 33.3125 16.9021L32.5 10.1666H27.5625L26.6875 16.9021C25.3958 17.241 24.1983 17.7391 23.095 18.3966C21.9917 19.054 20.9808 19.8479 20.0625 20.7781L13.875 18.1729L11.4375 22.4937L16.8125 26.5604C16.6042 27.1958 16.4583 27.8312 16.375 28.4666C16.2917 29.1021 16.25 29.7798 16.25 30.5C16.25 31.1778 16.2917 31.8344 16.375 32.4698C16.4583 33.1052 16.6042 33.7406 16.8125 34.376L11.4375 38.5062L13.875 42.8271L20.0625 40.1583C20.9792 41.1326 21.99 41.9485 23.095 42.6059C24.2 43.2634 25.3975 43.7607 26.6875 44.0979L27.5 50.8333Z" fill="#244D61"/>
</svg>
