<svg width="102" height="104" viewBox="0 0 102 104" fill="none" xmlns="http://www.w3.org/2000/svg">
<path d="M39.3125 95.3333L37.6125 81.4667C36.6916 81.1056 35.8232 80.6722 35.0072 80.1667C34.1912 79.6611 33.3951 79.1195 32.6187 78.5417L19.975 83.9583L8.28748 63.375L19.2312 54.925C19.1604 54.4195 19.125 53.9312 19.125 53.4603V50.5397C19.125 50.0688 19.1604 49.5806 19.2312 49.075L8.28748 40.625L19.975 20.0417L32.6187 25.4584C33.3979 24.8806 34.2125 24.3389 35.0625 23.8334C35.9125 23.3278 36.7625 22.8945 37.6125 22.5334L39.3125 8.66669H62.6875L64.3875 22.5334C65.3083 22.8945 66.1767 23.3278 66.9927 23.8334C67.8087 24.3389 68.6049 24.8806 69.3812 25.4584L82.025 20.0417L93.7125 40.625L82.7687 49.075C82.8395 49.5806 82.875 50.0688 82.875 50.5397V53.4603C82.875 53.9312 82.8041 54.4195 82.6625 54.925L93.6062 63.375L81.9187 83.9583L69.3812 78.5417C68.6021 79.1195 67.7875 79.6611 66.9375 80.1667C66.0875 80.6722 65.2375 81.1056 64.3875 81.4667L62.6875 95.3333H39.3125ZM51.2125 67.1667C55.3208 67.1667 58.8271 65.6861 61.7312 62.725C64.6354 59.7639 66.0875 56.1889 66.0875 52C66.0875 47.8111 64.6354 44.2361 61.7312 41.275C58.8271 38.3139 55.3208 36.8334 51.2125 36.8334C47.0333 36.8334 43.5086 38.3139 40.6385 41.275C37.7683 44.2361 36.3346 47.8111 36.3375 52C36.3375 56.1889 37.7711 59.7639 40.6385 62.725C43.5058 65.6861 47.0305 67.1667 51.2125 67.1667ZM51.2125 58.5C49.4416 58.5 47.9357 57.8674 46.6947 56.602C45.4537 55.3367 44.8346 53.8027 44.8375 52C44.8375 50.1945 45.458 48.659 46.699 47.3937C47.94 46.1284 49.4445 45.4971 51.2125 45.5C52.9833 45.5 54.4892 46.1327 55.7302 47.398C56.9712 48.6633 57.5903 50.1974 57.5875 52C57.5875 53.8056 56.967 55.341 55.726 56.6063C54.485 57.8717 52.9805 58.5029 51.2125 58.5ZM46.75 86.6667H55.1437L56.6312 75.1834C58.8271 74.6056 60.8642 73.7562 62.7427 72.6353C64.6212 71.5145 66.3382 70.161 67.8937 68.575L78.4125 73.0167L82.5562 65.65L73.4187 58.6083C73.7729 57.5972 74.0208 56.5327 74.1625 55.4147C74.3041 54.2967 74.375 53.1585 74.375 52C74.375 50.8445 74.3041 49.7077 74.1625 48.5897C74.0208 47.4717 73.7729 46.4057 73.4187 45.3917L82.5562 38.35L78.4125 30.9834L67.8937 35.5334C66.3354 33.8722 64.6184 32.4827 62.7427 31.3647C60.8671 30.2467 58.8299 29.3974 56.6312 28.8167L55.25 17.3334H46.8562L45.3687 28.8167C43.1729 29.3945 41.1371 30.2438 39.2615 31.3647C37.3858 32.4856 35.6674 33.839 34.1062 35.425L23.5875 30.9834L19.4437 38.35L28.5812 45.2834C28.2271 46.3667 27.9791 47.45 27.8375 48.5333C27.6958 49.6167 27.625 50.7722 27.625 52C27.625 53.1556 27.6958 54.275 27.8375 55.3583C27.9791 56.4417 28.2271 57.525 28.5812 58.6083L19.4437 65.65L23.5875 73.0167L34.1062 68.4667C35.6646 70.1278 37.383 71.5188 39.2615 72.6397C41.14 73.7606 43.1757 74.6085 45.3687 75.1834L46.75 86.6667Z" fill="#244D61"/>
</svg>
