<svg width="181" height="205" viewBox="0 0 181 205" fill="none" xmlns="http://www.w3.org/2000/svg">
<rect width="102.349" height="102.349" transform="matrix(0.87187 0.498543 -0.85926 0.502912 88.5935 0)" fill="#AFE7F6"/>
<rect width="102.349" height="102.505" transform="matrix(0.87187 0.498543 0.020133 0.999899 1.03192 51.2452)" fill="#AFE7F6"/>
<rect width="102.349" height="102.505" transform="matrix(0.85926 -0.502912 0.0201331 0.999899 90.4118 102.495)" fill="#AFE7F6"/>
<path d="M62.3125 128.333L60.6125 114.467C59.6917 114.106 58.8233 113.672 58.0073 113.167C57.1913 112.661 56.3951 112.119 55.6188 111.542L42.975 116.958L31.2875 96.375L42.2313 87.925C42.1604 87.4195 42.125 86.9312 42.125 86.4604V83.5397C42.125 83.0688 42.1604 82.5806 42.2313 82.075L31.2875 73.625L42.975 53.0417L55.6188 58.4584C56.3979 57.8806 57.2125 57.3389 58.0625 56.8334C58.9125 56.3278 59.7625 55.8945 60.6125 55.5334L62.3125 41.6667H85.6875L87.3875 55.5334C88.3083 55.8945 89.1768 56.3278 89.9927 56.8334C90.8088 57.3389 91.6049 57.8806 92.3813 58.4584L105.025 53.0417L116.712 73.625L105.769 82.075C105.84 82.5806 105.875 83.0688 105.875 83.5397V86.4604C105.875 86.9312 105.804 87.4195 105.662 87.925L116.606 96.375L104.919 116.958L92.3813 111.542C91.6021 112.119 90.7875 112.661 89.9375 113.167C89.0875 113.672 88.2375 114.106 87.3875 114.467L85.6875 128.333H62.3125ZM74.2125 100.167C78.3208 100.167 81.8271 98.6861 84.7313 95.725C87.6354 92.7639 89.0875 89.1889 89.0875 85C89.0875 80.8111 87.6354 77.2361 84.7313 74.275C81.8271 71.3139 78.3208 69.8334 74.2125 69.8334C70.0333 69.8334 66.5087 71.3139 63.6385 74.275C60.7683 77.2361 59.3347 80.8111 59.3375 85C59.3375 89.1889 60.7712 92.7639 63.6385 95.725C66.5058 98.6861 70.0305 100.167 74.2125 100.167ZM74.2125 91.5C72.4417 91.5 70.9358 90.8674 69.6948 89.602C68.4538 88.3367 67.8347 86.8027 67.8375 85C67.8375 83.1945 68.458 81.659 69.699 80.3937C70.94 79.1284 72.4445 78.4971 74.2125 78.5C75.9833 78.5 77.4893 79.1327 78.7303 80.398C79.9713 81.6633 80.5903 83.1973 80.5875 85C80.5875 86.8056 79.967 88.341 78.726 89.6063C77.485 90.8717 75.9805 91.5029 74.2125 91.5ZM69.75 119.667H78.1438L79.6313 108.183C81.8271 107.606 83.8643 106.756 85.7427 105.635C87.6213 104.514 89.3383 103.161 90.8938 101.575L101.412 106.017L105.556 98.65L96.4187 91.6083C96.7729 90.5972 97.0208 89.5327 97.1625 88.4147C97.3042 87.2967 97.375 86.1585 97.375 85C97.375 83.8445 97.3042 82.7077 97.1625 81.5897C97.0208 80.4717 96.7729 79.4057 96.4187 78.3917L105.556 71.35L101.412 63.9834L90.8938 68.5333C89.3354 66.8722 87.6184 65.4827 85.7427 64.3647C83.8671 63.2467 81.8299 62.3974 79.6313 61.8167L78.25 50.3334H69.8563L68.3688 61.8167C66.1729 62.3945 64.1372 63.2438 62.2615 64.3647C60.3858 65.4856 58.6674 66.839 57.1063 68.425L46.5875 63.9834L42.4438 71.35L51.5813 78.2834C51.2271 79.3667 50.9792 80.45 50.8375 81.5333C50.6958 82.6167 50.625 83.7722 50.625 85C50.625 86.1556 50.6958 87.275 50.8375 88.3583C50.9792 89.4417 51.2271 90.525 51.5813 91.6083L42.4438 98.65L46.5875 106.017L57.1063 101.467C58.6646 103.128 60.383 104.519 62.2615 105.64C64.14 106.761 66.1758 107.608 68.3688 108.183L69.75 119.667Z" fill="#244D61"/>
<path d="M110.125 166.917L109.125 158.783C108.583 158.572 108.073 158.317 107.592 158.021C107.113 157.724 106.644 157.407 106.188 157.068L98.75 160.245L91.875 148.172L98.3125 143.216C98.2708 142.919 98.25 142.633 98.25 142.357V140.643C98.25 140.367 98.2708 140.081 98.3125 139.784L91.875 134.828L98.75 122.755L106.188 125.932C106.646 125.593 107.125 125.276 107.625 124.979C108.125 124.683 108.625 124.428 109.125 124.217L110.125 116.083H123.875L124.875 124.217C125.417 124.428 125.927 124.683 126.407 124.979C126.887 125.276 127.356 125.593 127.812 125.932L135.25 122.755L142.125 134.828L135.687 139.784C135.729 140.081 135.75 140.367 135.75 140.643V142.357C135.75 142.633 135.708 142.919 135.625 143.216L142.062 148.172L135.187 160.245L127.812 157.068C127.354 157.407 126.875 157.724 126.375 158.021C125.875 158.317 125.375 158.572 124.875 158.783L123.875 166.917H110.125ZM117.125 150.396C119.542 150.396 121.604 149.527 123.312 147.791C125.021 146.054 125.875 143.957 125.875 141.5C125.875 139.043 125.021 136.946 123.312 135.209C121.604 133.473 119.542 132.604 117.125 132.604C114.667 132.604 112.593 133.473 110.905 135.209C109.217 136.946 108.373 139.043 108.375 141.5C108.375 143.957 109.218 146.054 110.905 147.791C112.592 149.527 114.665 150.396 117.125 150.396ZM117.125 145.312C116.083 145.312 115.198 144.941 114.467 144.199C113.737 143.457 113.373 142.557 113.375 141.5C113.375 140.441 113.74 139.54 114.47 138.798C115.2 138.056 116.085 137.686 117.125 137.687C118.167 137.687 119.052 138.059 119.782 138.801C120.512 139.543 120.877 140.443 120.875 141.5C120.875 142.559 120.51 143.46 119.78 144.202C119.05 144.944 118.165 145.314 117.125 145.312ZM114.5 161.833H119.437L120.312 155.098C121.604 154.759 122.802 154.261 123.907 153.603C125.012 152.946 126.022 152.152 126.937 151.222L133.125 153.827L135.562 149.506L130.187 145.376C130.396 144.783 130.542 144.159 130.625 143.503C130.708 142.847 130.75 142.179 130.75 141.5C130.75 140.822 130.708 140.155 130.625 139.5C130.542 138.844 130.396 138.219 130.187 137.624L135.562 133.494L133.125 129.173L126.937 131.842C126.021 130.867 125.011 130.052 123.907 129.397C122.804 128.741 121.606 128.243 120.312 127.902L119.5 121.167H114.562L113.687 127.902C112.396 128.241 111.198 128.739 110.095 129.397C108.992 130.054 107.981 130.848 107.062 131.778L100.875 129.173L98.4375 133.494L103.812 137.56C103.604 138.196 103.458 138.831 103.375 139.467C103.292 140.102 103.25 140.78 103.25 141.5C103.25 142.178 103.292 142.834 103.375 143.47C103.458 144.105 103.604 144.741 103.812 145.376L98.4375 149.506L100.875 153.827L107.062 151.158C107.979 152.133 108.99 152.948 110.095 153.606C111.2 154.263 112.397 154.761 113.687 155.098L114.5 161.833Z" fill="#244D61"/>
<path d="M128.562 108.5L128.062 104.5C127.792 104.396 127.536 104.271 127.296 104.125C127.056 103.979 126.822 103.823 126.594 103.656L122.875 105.219L119.438 99.2812L122.656 96.8438C122.635 96.6979 122.625 96.5571 122.625 96.4212V95.5788C122.625 95.4429 122.635 95.3021 122.656 95.1562L119.438 92.7188L122.875 86.7812L126.594 88.3438C126.823 88.1771 127.062 88.0208 127.312 87.875C127.562 87.7292 127.812 87.6042 128.062 87.5L128.562 83.5H135.437L135.937 87.5C136.208 87.6042 136.464 87.7292 136.704 87.875C136.944 88.0208 137.178 88.1771 137.406 88.3438L141.125 86.7812L144.562 92.7188L141.344 95.1562C141.365 95.3021 141.375 95.4429 141.375 95.5788V96.4212C141.375 96.5571 141.354 96.6979 141.312 96.8438L144.531 99.2812L141.094 105.219L137.406 103.656C137.177 103.823 136.937 103.979 136.687 104.125C136.437 104.271 136.187 104.396 135.937 104.5L135.437 108.5H128.562ZM132.062 100.375C133.271 100.375 134.302 99.9479 135.156 99.0938C136.01 98.2396 136.437 97.2083 136.437 96C136.437 94.7917 136.01 93.7604 135.156 92.9062C134.302 92.0521 133.271 91.625 132.062 91.625C130.833 91.625 129.797 92.0521 128.952 92.9062C128.108 93.7604 127.687 94.7917 127.688 96C127.688 97.2083 128.109 98.2396 128.952 99.0938C129.796 99.9479 130.832 100.375 132.062 100.375ZM132.062 97.875C131.542 97.875 131.099 97.6925 130.734 97.3275C130.369 96.9625 130.187 96.52 130.187 96C130.187 95.4792 130.37 95.0363 130.735 94.6713C131.1 94.3063 131.542 94.1242 132.062 94.125C132.583 94.125 133.026 94.3075 133.391 94.6725C133.756 95.0375 133.938 95.48 133.937 96C133.937 96.5208 133.755 96.9637 133.39 97.3287C133.025 97.6937 132.582 97.8758 132.062 97.875ZM130.75 106H133.219L133.656 102.688C134.302 102.521 134.901 102.276 135.454 101.952C136.006 101.629 136.511 101.239 136.969 100.781L140.062 102.062L141.281 99.9375L138.594 97.9062C138.698 97.6146 138.771 97.3075 138.812 96.985C138.854 96.6625 138.875 96.3342 138.875 96C138.875 95.6667 138.854 95.3387 138.812 95.0163C138.771 94.6938 138.698 94.3863 138.594 94.0938L141.281 92.0625L140.062 89.9375L136.969 91.25C136.51 90.7708 136.005 90.37 135.454 90.0475C134.902 89.725 134.303 89.48 133.656 89.3125L133.25 86H130.781L130.344 89.3125C129.698 89.4792 129.099 89.7242 128.547 90.0475C127.996 90.3708 127.49 90.7613 127.031 91.2188L123.937 89.9375L122.719 92.0625L125.406 94.0625C125.302 94.375 125.229 94.6875 125.188 95C125.146 95.3125 125.125 95.6458 125.125 96C125.125 96.3333 125.146 96.6562 125.188 96.9688C125.229 97.2812 125.302 97.5938 125.406 97.9062L122.719 99.9375L123.937 102.062L127.031 100.75C127.49 101.229 127.995 101.63 128.547 101.954C129.1 102.277 129.699 102.522 130.344 102.688L130.75 106Z" fill="#244D61"/>
</svg>
