<svg width="845" height="844" viewBox="0 0 845 844" fill="none" xmlns="http://www.w3.org/2000/svg">
<g filter="url(#filter0_f_1_79)">
<path d="M807.461 798.373V325.757C807.461 314.711 798.507 305.757 787.461 305.757H55.9889C44.9432 305.757 35.9889 314.711 35.9889 325.757V798.373" stroke="#244D61" stroke-width="10"/>
</g>
<g filter="url(#filter1_f_1_79)">
<path d="M285.819 340.206V127.726C285.819 89.0664 317.159 57.7263 355.819 57.7263H487.633C526.293 57.7263 557.633 89.0664 557.633 127.726V340.206" stroke="#244D61" stroke-width="10"/>
<path d="M591.609 395.111V105C591.609 60.8172 555.792 25 511.609 25H331.841C287.659 25 251.841 60.8172 251.841 105V407.949V478.001" stroke="#244D61" stroke-width="10"/>
<path d="M285.262 304.371V530.408L249.5 573.171M249.5 573.171V696.372M249.5 573.171L296.438 628.153V774.772" stroke="#244D61" stroke-width="10"/>
<path d="M477.486 304.371V530.408L441.723 573.171M441.723 573.171V696.372M441.723 573.171L488.661 628.153V774.772" stroke="#244D61" stroke-width="10"/>
<path d="M262.381 485.785C262.381 489.672 258.115 494.459 250.617 494.459C243.12 494.459 238.854 489.672 238.854 485.785C238.854 481.898 243.12 477.11 250.617 477.11C258.115 477.11 262.381 481.898 262.381 485.785Z" stroke="#244D61" stroke-width="10"/>
<path d="M262.381 710.046C262.381 713.933 258.115 718.72 250.617 718.72C243.12 718.72 238.854 713.933 238.854 710.046C238.854 706.159 243.12 701.372 250.617 701.372C258.115 701.372 262.381 706.159 262.381 710.046Z" stroke="#244D61" stroke-width="10"/>
<path d="M216.412 558.85C216.412 562.737 212.146 567.524 204.649 567.524C197.152 567.524 192.885 562.737 192.885 558.85C192.885 554.963 197.152 550.175 204.649 550.175C212.146 550.175 216.412 554.963 216.412 558.85Z" stroke="#244D61" stroke-width="10"/>
<path d="M658.11 558.85C658.11 562.737 653.844 567.524 646.347 567.524C638.849 567.524 634.583 562.737 634.583 558.85C634.583 554.963 638.849 550.175 646.347 550.175C653.844 550.175 658.11 554.963 658.11 558.85Z" stroke="#244D61" stroke-width="10"/>
<path d="M499.308 782.977C499.308 786.864 495.041 791.651 487.544 791.651C480.047 791.651 475.781 786.864 475.781 782.977C475.781 779.09 480.047 774.302 487.544 774.302C495.041 774.302 499.308 779.09 499.308 782.977Z" stroke="#244D61" stroke-width="10"/>
<path d="M307.084 782.977C307.084 786.864 302.818 791.651 295.32 791.651C287.823 791.651 283.557 786.864 283.557 782.977C283.557 779.09 287.823 774.302 295.32 774.302C302.818 774.302 307.084 779.09 307.084 782.977Z" stroke="#244D61" stroke-width="10"/>
<path d="M452.37 702.753C452.37 706.64 448.103 711.428 440.606 711.428C433.109 711.428 428.842 706.64 428.842 702.753C428.842 698.866 433.109 694.079 440.606 694.079C448.103 694.079 452.37 698.866 452.37 702.753Z" stroke="#244D61" stroke-width="10"/>
<path d="M340.612 710.046C340.612 713.933 336.345 718.72 328.848 718.72C321.351 718.72 317.084 713.933 317.084 710.046C317.084 706.159 321.351 701.372 328.848 701.372C336.345 701.372 340.612 706.159 340.612 710.046Z" stroke="#244D61" stroke-width="10"/>
<path d="M535.071 710.046C535.071 713.933 530.804 718.72 523.307 718.72C515.81 718.72 511.543 713.933 511.543 710.046C511.543 706.159 515.81 701.372 523.307 701.372C530.804 701.372 535.071 706.159 535.071 710.046Z" stroke="#244D61" stroke-width="10"/>
<path d="M606.595 620.706C606.595 624.593 602.329 629.381 594.832 629.381C587.335 629.381 583.068 624.593 583.068 620.706C583.068 616.819 587.335 612.032 594.832 612.032C602.329 612.032 606.595 616.819 606.595 620.706Z" stroke="#244D61" stroke-width="10"/>
<path d="M602.124 409.209C602.124 413.096 597.858 417.883 590.361 417.883C582.864 417.883 578.597 413.096 578.597 409.209C578.597 405.322 582.864 400.534 590.361 400.534C597.858 400.534 602.124 405.322 602.124 409.209Z" stroke="#244D61" stroke-width="10"/>
<path d="M387.549 635.292C387.549 639.179 383.283 643.966 375.786 643.966C368.289 643.966 364.022 639.179 364.022 635.292C364.022 631.405 368.289 626.617 375.786 626.617C383.283 626.617 387.549 631.405 387.549 635.292Z" stroke="#244D61" stroke-width="10"/>
<path d="M48.5274 810.326C48.5274 814.213 44.2608 819 36.7637 819C29.2666 819 25 814.213 25 810.326C25 806.439 29.2666 801.651 36.7637 801.651C44.2608 801.651 48.5274 806.439 48.5274 810.326Z" stroke="#244D61" stroke-width="10"/>
<path d="M820 810.326C820 814.213 815.734 819 808.236 819C800.739 819 796.473 814.213 796.473 810.326C796.473 806.439 800.739 801.651 808.236 801.651C815.734 801.651 820 806.439 820 810.326Z" stroke="#244D61" stroke-width="10"/>
<path d="M329.965 304.371V701.841" stroke="#244D61" stroke-width="10"/>
<path d="M524.424 304.371V701.841" stroke="#244D61" stroke-width="10"/>
<path d="M423.842 305.282V457.525L376.904 510.399V623.441" stroke="#244D61" stroke-width="10"/>
<path d="M557.952 305.282V490.343L595.95 528.632V607.032" stroke="#244D61" stroke-width="10"/>
</g>
<g filter="url(#filter2_f_1_79)">
<path d="M203.874 307.479V545.176" stroke="#244D61" stroke-width="10"/>
</g>
<g filter="url(#filter3_f_1_79)">
<path d="M647.571 307.479V545.176" stroke="#244D61" stroke-width="10"/>
</g>
<defs>
<filter id="filter0_f_1_79" x="10.9889" y="280.757" width="821.472" height="537.616" filterUnits="userSpaceOnUse" color-interpolation-filters="sRGB">
<feFlood flood-opacity="0" result="BackgroundImageFix"/>
<feBlend mode="normal" in="SourceGraphic" in2="BackgroundImageFix" result="shape"/>
<feGaussianBlur stdDeviation="10" result="effect1_foregroundBlur_1_79"/>
</filter>
<filter id="filter1_f_1_79" x="0" y="0" width="845" height="844" filterUnits="userSpaceOnUse" color-interpolation-filters="sRGB">
<feFlood flood-opacity="0" result="BackgroundImageFix"/>
<feBlend mode="normal" in="SourceGraphic" in2="BackgroundImageFix" result="shape"/>
<feGaussianBlur stdDeviation="10" result="effect1_foregroundBlur_1_79"/>
</filter>
<filter id="filter2_f_1_79" x="178.874" y="287.479" width="50" height="277.696" filterUnits="userSpaceOnUse" color-interpolation-filters="sRGB">
<feFlood flood-opacity="0" result="BackgroundImageFix"/>
<feBlend mode="normal" in="SourceGraphic" in2="BackgroundImageFix" result="shape"/>
<feGaussianBlur stdDeviation="10" result="effect1_foregroundBlur_1_79"/>
</filter>
<filter id="filter3_f_1_79" x="622.571" y="287.479" width="50" height="277.696" filterUnits="userSpaceOnUse" color-interpolation-filters="sRGB">
<feFlood flood-opacity="0" result="BackgroundImageFix"/>
<feBlend mode="normal" in="SourceGraphic" in2="BackgroundImageFix" result="shape"/>
<feGaussianBlur stdDeviation="10" result="effect1_foregroundBlur_1_79"/>
</filter>
</defs>
</svg>
