<svg width="181" height="205" viewBox="0 0 181 205" fill="none" xmlns="http://www.w3.org/2000/svg">
<rect width="102.349" height="102.349" transform="matrix(0.87187 0.498543 -0.85926 0.502912 88.5935 0)" fill="#AFE7F6"/>
<rect width="102.349" height="102.505" transform="matrix(0.87187 0.498543 0.020133 0.999899 1.03192 51.2452)" fill="#AFE7F6"/>
<rect width="102.349" height="102.505" transform="matrix(0.85926 -0.502912 0.0201331 0.999899 90.4118 102.495)" fill="#AFE7F6"/>
<path d="M99.125 91C99.125 89.9842 99.0808 89.0125 98.9925 87.9967L107.207 81.7692C108.974 80.4442 109.46 77.9708 108.356 76.0275L100.097 61.7617C99.5671 60.8262 98.7105 60.1193 97.6915 59.7769C96.6725 59.4345 95.5629 59.4807 94.5758 59.9067L85.08 63.9258C83.4458 62.7775 81.7233 61.7617 79.9125 60.9225L78.6317 50.72C78.3667 48.5117 76.4675 46.8333 74.2592 46.8333H57.785C55.5325 46.8333 53.6333 48.5117 53.3683 50.72L52.0875 60.9225C50.2767 61.7617 48.5542 62.7775 46.92 63.9258L37.4242 59.9067C35.3925 59.0233 33.0075 59.8183 31.9033 61.7617L23.6442 76.0717C22.54 78.015 23.0258 80.4442 24.7925 81.8133L33.0075 88.0408C32.8244 90.0241 32.8244 92.0201 33.0075 94.0033L24.7925 100.231C23.0258 101.556 22.54 104.029 23.6442 105.973L31.9033 120.238C33.0075 122.182 35.3925 122.977 37.4242 122.093L46.92 118.074C48.5542 119.223 50.2767 120.238 52.0875 121.078L53.3683 131.28C53.6333 133.488 55.5325 135.167 57.7408 135.167H74.215C76.4233 135.167 78.3225 133.488 78.5875 131.28L79.8683 121.078C81.6792 120.238 83.4017 119.223 85.0358 118.074L94.5316 122.093C96.5633 122.977 98.9483 122.182 100.052 120.238L108.312 105.973C109.416 104.029 108.93 101.6 107.163 100.231L98.9483 94.0033C99.0808 92.9875 99.125 92.0158 99.125 91Z" fill="#244D61"/>
<path d="M84.81 109.883C85.912 109.809 86.7448 108.855 86.6701 107.753L85.4518 89.7939C85.3771 88.6919 84.4231 87.8591 83.3211 87.9339C82.219 88.0086 81.3862 88.9626 81.461 90.0646L82.5439 106.028L66.5806 107.111C65.4785 107.186 64.6458 108.14 64.7205 109.242C64.7953 110.344 65.7492 111.176 66.8513 111.102L84.81 109.883ZM45.6847 76.5067L83.3594 109.395L85.9899 106.381L48.3153 73.4933L45.6847 76.5067Z" fill="white"/>
<path d="M152.437 134.5C152.437 133.858 152.41 133.244 152.354 132.602L157.546 128.665C158.663 127.828 158.97 126.265 158.272 125.036L153.052 116.019C152.717 115.428 152.175 114.981 151.531 114.765C150.887 114.548 150.186 114.577 149.562 114.847L143.56 117.387C142.527 116.661 141.438 116.019 140.294 115.489L139.484 109.04C139.317 107.644 138.116 106.583 136.72 106.583H126.307C124.884 106.583 123.683 107.644 123.516 109.04L122.706 115.489C121.562 116.019 120.473 116.661 119.44 117.387L113.438 114.847C112.154 114.288 110.646 114.791 109.948 116.019L104.728 125.064C104.03 126.292 104.337 127.828 105.454 128.693L110.646 132.63C110.531 133.883 110.531 135.145 110.646 136.398L105.454 140.335C104.337 141.172 104.03 142.735 104.728 143.964L109.948 152.981C110.646 154.209 112.154 154.712 113.438 154.153L119.44 151.613C120.473 152.339 121.562 152.981 122.706 153.511L123.516 159.96C123.683 161.356 124.884 162.417 126.28 162.417H136.692C138.088 162.417 139.289 161.356 139.456 159.96L140.266 153.511C141.41 152.981 142.499 152.339 143.532 151.613L149.534 154.153C150.818 154.712 152.326 154.209 153.024 152.981L158.244 143.964C158.942 142.735 158.635 141.2 157.518 140.335L152.326 136.398C152.41 135.756 152.437 135.142 152.437 134.5Z" fill="#244D61"/>
<path d="M120.981 125.986C119.894 126.187 119.177 127.23 119.377 128.316L122.649 146.017C122.849 147.103 123.893 147.821 124.979 147.62C126.065 147.419 126.783 146.376 126.582 145.29L123.674 129.556L139.408 126.649C140.494 126.448 141.212 125.405 141.011 124.318C140.81 123.232 139.767 122.514 138.681 122.715L120.981 125.986ZM143.48 140.756L122.478 126.305L120.21 129.601L141.212 144.051L143.48 140.756Z" fill="white"/>
</svg>
