<svg width="181" height="205" viewBox="0 0 181 205" fill="none" xmlns="http://www.w3.org/2000/svg">
<rect width="102.349" height="102.349" transform="matrix(0.87187 0.498543 -0.85926 0.502912 88.5935 0)" fill="#AFE7F6"/>
<rect width="102.349" height="102.505" transform="matrix(0.87187 0.498543 0.020133 0.999899 1.03192 51.2452)" fill="#AFE7F6"/>
<rect width="102.349" height="102.505" transform="matrix(0.85926 -0.502912 0.0201331 0.999899 90.4118 102.495)" fill="#AFE7F6"/>
<path d="M87.7388 28.8787C86.5672 27.7071 84.6677 27.7071 83.4961 28.8787L64.4042 47.9706C63.2327 49.1421 63.2327 51.0416 64.4042 52.2132C65.5758 53.3848 67.4753 53.3848 68.6469 52.2132L85.6174 35.2426L102.588 52.2132C103.76 53.3848 105.659 53.3848 106.831 52.2132C108.002 51.0416 108.002 49.1421 106.831 47.9706L87.7388 28.8787ZM88.6174 174L88.6174 31H82.6174L82.6174 174H88.6174Z" fill="#244D61"/>
<path d="M29.2169 61.0601C27.5404 61.2834 26.5319 62.7316 26.9643 64.2945L34.0107 89.7647C34.4431 91.3276 36.1527 92.4136 37.8291 92.1903C39.5056 91.9669 40.5141 90.5188 40.0817 88.9558L33.8183 66.3157L58.1025 63.0802C59.779 62.8568 60.7875 61.4087 60.3551 59.8458C59.9227 58.2828 58.2132 57.1968 56.5367 57.4202L29.2169 61.0601ZM81.3118 172.476C86.1265 144.787 85.8006 124.545 77.9903 107.364C70.1492 90.1152 55.0107 76.4787 31.5926 61.603L28.407 66.1772C51.4195 80.7953 65.1799 93.52 72.2342 109.038C79.3193 124.624 79.8851 143.556 75.1159 170.984L81.3118 172.476Z" fill="#244D61"/>
<path d="M155.088 64.26C155.512 62.7238 154.474 61.3128 152.769 61.1084L124.979 57.7776C123.273 57.5732 121.546 58.6529 121.122 60.1891C120.697 61.7253 121.735 63.1364 123.441 63.3408L148.143 66.3014L141.992 88.554C141.567 90.0902 142.605 91.5013 144.31 91.7057C146.016 91.9101 147.743 90.8304 148.167 89.2942L155.088 64.26ZM95.9101 169.577C90.2524 146.189 90.8194 129.288 99.3676 113.935C107.979 98.4682 124.974 84.0421 153.64 66.1185L150.36 61.6614C121.506 79.7029 103.181 94.9267 93.7123 111.933C84.1795 129.054 83.9036 147.45 89.6781 171.321L95.9101 169.577Z" fill="#244D61"/>
</svg>
