<svg width="65" height="65" viewBox="0 0 65 65" fill="none" xmlns="http://www.w3.org/2000/svg">
<circle cx="32.5" cy="32.5002" r="32.5" fill="#244D61"/>
<path d="M51.0488 16.1822C47.6386 14.6761 44.0309 13.6059 40.321 13C39.8589 13.7886 39.319 14.8493 38.9467 15.6931C34.9467 15.1254 30.9836 15.1254 27.0571 15.6931C26.685 14.8495 26.1329 13.7886 25.6666 13C21.953 13.6062 18.3422 14.6791 14.9304 16.19C8.14114 25.8743 6.30063 35.3176 7.22078 44.6274C11.7239 47.8015 16.0878 49.7298 20.3782 50.9916C21.4445 49.6075 22.387 48.1422 23.1962 46.6107C21.6557 46.0571 20.1707 45.3749 18.7587 44.5722C19.1303 44.3122 19.4931 44.0413 19.8466 43.7598C28.4027 47.5373 37.6993 47.5373 46.1533 43.7598C46.5084 44.0394 46.8711 44.3103 47.2411 44.5722C45.8268 45.377 44.339 46.0606 42.7955 46.6147C43.6092 48.1524 44.5501 49.6192 45.6134 50.9954C49.9079 49.7338 54.2759 47.8056 58.779 44.6274C59.8588 33.8352 56.9346 24.4784 51.0488 16.1822ZM24.3619 38.9021C21.7934 38.9021 19.687 36.6387 19.687 33.8825C19.687 31.1264 21.7485 28.8591 24.3619 28.8591C26.9755 28.8591 29.0817 31.1224 29.0368 33.8825C29.0409 36.6387 26.9755 38.9021 24.3619 38.9021ZM41.6379 38.9021C39.0693 38.9021 36.9631 36.6387 36.9631 33.8825C36.9631 31.1264 39.0245 28.8591 41.6379 28.8591C44.2515 28.8591 46.3577 31.1224 46.3128 33.8825C46.3128 36.6387 44.2515 38.9021 41.6379 38.9021Z" fill="#AFE7F6"/>
</svg>
