<svg width="65" height="65" viewBox="0 0 65 65" fill="none" xmlns="http://www.w3.org/2000/svg">
<circle cx="32.5" cy="32.5" r="32.5" fill="#244D61"/>
<path d="M8 45.71C10.4872 46.9599 28.4915 56.3932 41.2941 49.1227C54.0965 41.8523 53.3902 29.3264 53.3902 23.5866C54.55 21.3783 57 20.2556 57 14.2782C54.5935 16.2988 52.2015 16.9863 49.8241 16.3407C47.4949 13.1129 44.2903 11.6853 40.2103 12.0578C34.0903 12.6166 31.8513 18.074 32.5102 25.1345C23.0738 29.4719 15.6743 21.9903 11.8609 16.3407C10.5868 20.7901 9.3582 26.1318 11.8609 32.0411C13.5294 35.9805 17.5402 39.311 23.8933 42.0327C17.4548 45.2044 12.157 46.4301 8 45.71Z" fill="#AFE7F6"/>
</svg>
