<svg width="181" height="205" viewBox="0 0 181 205" fill="none" xmlns="http://www.w3.org/2000/svg">
<rect width="102.349" height="102.349" transform="matrix(0.87187 0.498543 -0.85926 0.502912 88.5935 0)" fill="#AFE7F6"/>
<rect width="102.349" height="102.505" transform="matrix(0.87187 0.498543 0.020133 0.999899 1.03192 51.2452)" fill="#AFE7F6"/>
<rect width="102.349" height="102.505" transform="matrix(0.85926 -0.502912 0.0201331 0.999899 90.4118 102.495)" fill="#AFE7F6"/>
<path d="M83.9437 43.5367L44.5688 60.7712C40.5188 62.5446 37.875 66.5346 37.875 70.9125V96.9583C37.875 127.715 59.475 156.476 88.5 163.458C117.525 156.476 139.125 127.715 139.125 96.9583V70.9125C139.125 66.5346 136.481 62.5446 132.431 60.7712L93.0563 43.5367C90.1875 42.2621 86.8125 42.2621 83.9437 43.5367ZM88.5 102.445H127.875C124.894 125.276 109.425 145.614 88.5 151.987V102.5H49.125V70.9125L88.5 53.6779V102.445Z" fill="#244D61"/>
</svg>
